<mxfile host="app.diagrams.net" modified="2024-04-17T19:36:49.137Z" agent="Mozilla/5.0 (Windows NT 10.0; Win64; x64) AppleWebKit/537.36 (KHTML, like Gecko) Chrome/123.0.0.0 Safari/537.36 OPR/109.0.0.0" version="24.2.5" etag="soxC-LtRcJ9_i_3qqlpQ" type="github">
  <diagram name="Strona-1" id="M2NeZW4pih5JDx2M3lNW">
    <mxGraphModel>
      <root>
        <mxCell id="0" />
        <mxCell id="1" parent="0" />
      </root>
    </mxGraphModel>
  </diagram>
</mxfile>
